<svg id="Layer_1" data-name="Layer 1" xmlns="http://www.w3.org/2000/svg" viewBox="0 0 512 512"><defs><style>.cls-1{fill:rgba(0, 0, 0, 0.54);}</style></defs><title>weighing-machine-glyph</title><path class="cls-1" d="M256,217.6A102.4,102.4,0,1,0,358.39,320,102.52,102.52,0,0,0,256,217.6Zm41.26,64.84-30.69,44.8a12.8,12.8,0,0,1-21.13-14.48L276.12,268a12.8,12.8,0,0,1,21.13,14.48Z"/><path class="cls-1" d="M511,421.13,481.55,195c-6.29-38.83-40.67-67-81.76-67H320V102.4h96a25.63,25.63,0,0,0,25.6-25.6V25.6A25.63,25.63,0,0,0,416,0H96a25.62,25.62,0,0,0-25.6,25.6V76.8A25.62,25.62,0,0,0,96,102.4h96V128H112.18c-41.08,0-75.47,28.18-81.76,67l-.06.39L1,420.73a76.77,76.77,0,0,0,17.56,62.07A83.91,83.91,0,0,0,82.73,512h346.5a83.91,83.91,0,0,0,64.19-29.19A76.55,76.55,0,0,0,511,421.13ZM256,448A128,128,0,1,1,384,320,128.14,128.14,0,0,1,256,448Z"/></svg>